<svg id="apple" xmlns="http://www.w3.org/2000/svg" width="15" height="15" viewBox="0 0 15 15">
  <g id="Group_13" data-name="Group 13" transform="translate(0)">
    <path id="Path_11" data-name="Path 11" d="M11.924,0H3.076A3.08,3.08,0,0,0,0,3.076v8.848A3.08,3.08,0,0,0,3.076,15h8.848A3.08,3.08,0,0,0,15,11.924V3.076A3.08,3.08,0,0,0,11.924,0Zm-.46,10.837-.235.392c-.915.915-3.327-.012-5.386-2.072S2.856,4.686,3.771,3.771l.392-.235a.75.75,0,0,1,1.03.257l.555.926a.75.75,0,0,1-.113.917.879.879,0,0,0,0,1.243L8.122,9.364a.879.879,0,0,0,1.243,0,.75.75,0,0,1,.917-.113l.926.555A.751.751,0,0,1,11.464,10.837Z" transform="translate(0 0)" fill="#26bca2"/>
  </g>
</svg>
