<svg id="business-and-trade" xmlns="http://www.w3.org/2000/svg" width="15" height="14.889" viewBox="0 0 15 14.889">
  <path id="Path_12" data-name="Path 12" d="M8.144,1.235,1.275.192A1.108,1.108,0,0,0,.388.435,1.118,1.118,0,0,0,0,1.273V14.442a.627.627,0,0,0,.625.625H2.656V11.785A1.091,1.091,0,0,1,3.75,10.692H5.313a1.091,1.091,0,0,1,1.094,1.094v3.281H9.063V2.317a1.094,1.094,0,0,0-.919-1.081ZM3.438,9.285H2.5a.469.469,0,1,1,0-.937h.938a.469.469,0,1,1,0,.938Zm0-1.875H2.5a.469.469,0,1,1,0-.937h.938a.469.469,0,1,1,0,.937Zm0-1.875H2.5a.469.469,0,1,1,0-.937h.938a.469.469,0,1,1,0,.937Zm0-1.875H2.5a.469.469,0,1,1,0-.937h.938a.469.469,0,1,1,0,.938ZM6.563,9.285H5.625a.469.469,0,1,1,0-.937h.938a.469.469,0,0,1,0,.938Zm0-1.875H5.625a.469.469,0,1,1,0-.937h.938a.469.469,0,1,1,0,.937Zm0-1.875H5.625a.469.469,0,1,1,0-.937h.938a.469.469,0,1,1,0,.937Zm0-1.875H5.625a.469.469,0,1,1,0-.937h.938a.469.469,0,0,1,0,.938Z" transform="translate(0 -0.178)" fill="#6658DD"/>
  <path id="Path_13" data-name="Path 13" d="M19.95,10.283,15.5,9.351v9.156h4.219a1.1,1.1,0,0,0,1.094-1.094V11.352A1.088,1.088,0,0,0,19.95,10.283Zm-1.481,6.349h-.938a.469.469,0,0,1,0-.938h.938a.469.469,0,0,1,0,.938Zm0-1.875h-.938a.469.469,0,1,1,0-.937h.938a.469.469,0,1,1,0,.938Zm0-1.875h-.938a.469.469,0,0,1,0-.937h.938a.469.469,0,0,1,0,.938Z" transform="translate(-5.812 -3.618)" fill="#6658DD"/>
</svg>
