<svg width="16" height="16" viewBox="0 0 16 16" fill="none" xmlns="http://www.w3.org/2000/svg">
<path d="M11.7529 7.02225C12.0902 7.02225 12.3637 6.74879 12.3637 6.41145C12.3637 6.07412 12.0902 5.80066 11.7529 5.80066C11.4156 5.80066 11.1421 6.07412 11.1421 6.41145C11.1421 6.74879 11.4156 7.02225 11.7529 7.02225Z" fill="#6658DD"/>
<path d="M13.1783 1.22111H12.3874V0.610317C12.3874 0.448451 12.3231 0.293215 12.2086 0.178758C12.0942 0.0643011 11.9389 0 11.7771 0C11.6152 0 11.46 0.0643011 11.3455 0.178758C11.2311 0.293215 11.1668 0.448451 11.1668 0.610317V1.22016H8.38531V0.610317C8.38531 0.448451 8.32101 0.293215 8.20656 0.178758C8.0921 0.0643011 7.93686 0 7.775 0C7.61313 0 7.45789 0.0643011 7.34344 0.178758C7.22898 0.293215 7.16468 0.448451 7.16468 0.610317V1.22016H4.42325V0.610317C4.42325 0.448451 4.35895 0.293215 4.24449 0.178758C4.13004 0.0643011 3.9748 0 3.81294 0C3.65107 0 3.49583 0.0643011 3.38138 0.178758C3.26692 0.293215 3.20262 0.448451 3.20262 0.610317V1.22016H2.44032C1.79317 1.22092 1.17276 1.47839 0.715252 1.93608C0.25774 2.39377 0.000504351 3.01428 0 3.66143L0 13.1788C0.000756555 13.8257 0.258104 14.446 0.715588 14.9035C1.17307 15.361 1.79334 15.6183 2.44032 15.6191H7.10941C7.27128 15.6191 7.42651 15.5548 7.54097 15.4403C7.65543 15.3259 7.71973 15.1706 7.71973 15.0088C7.71973 14.8469 7.65543 14.6917 7.54097 14.5772C7.42651 14.4627 7.27128 14.3984 7.10941 14.3984H2.44032C2.11699 14.3979 1.80705 14.2693 1.57843 14.0406C1.3498 13.812 1.22114 13.5021 1.22063 13.1788V3.66143C1.22089 3.33794 1.34944 3.02776 1.57809 2.79892C1.80674 2.57009 2.11683 2.4413 2.44032 2.44079H3.20262V3.04968C3.20262 3.21155 3.26692 3.36678 3.38138 3.48124C3.49583 3.5957 3.65107 3.66 3.81294 3.66C3.9748 3.66 4.13004 3.5957 4.24449 3.48124C4.35895 3.36678 4.42325 3.21155 4.42325 3.04968V2.43984H7.16849V3.04968C7.17906 3.20384 7.24776 3.34823 7.36069 3.45368C7.47363 3.55914 7.62239 3.61779 7.7769 3.61779C7.93142 3.61779 8.08017 3.55914 8.19311 3.45368C8.30605 3.34823 8.37474 3.20384 8.38531 3.04968V2.43984H11.161V3.04968C11.161 3.21231 11.2256 3.36827 11.3406 3.48326C11.4556 3.59825 11.6116 3.66286 11.7742 3.66286C11.9368 3.66286 12.0928 3.59825 12.2078 3.48326C12.3228 3.36827 12.3874 3.21231 12.3874 3.04968V2.43984H13.1802C13.5038 2.44009 13.8142 2.56878 14.043 2.79763C14.2719 3.02649 14.4006 3.33682 14.4008 3.66048V7.13847C14.4008 7.30034 14.4651 7.45558 14.5796 7.57003C14.694 7.68449 14.8493 7.74879 15.0111 7.74879C15.173 7.74879 15.3282 7.68449 15.4427 7.57003C15.5572 7.45558 15.6215 7.30034 15.6215 7.13847V3.66143C15.6207 3.01395 15.363 2.39326 14.9049 1.93569C14.4468 1.47812 13.8258 1.22111 13.1783 1.22111Z" fill="#6658DD"/>
<path d="M11.9283 8.23718C11.1982 8.23718 10.4845 8.45369 9.8774 8.85931C9.27034 9.26493 8.79721 9.84144 8.51782 10.516C8.23842 11.1905 8.16531 11.9327 8.30775 12.6488C8.45018 13.3649 8.80177 14.0226 9.31803 14.5389C9.83428 15.0551 10.492 15.4067 11.2081 15.5491C11.9242 15.6916 12.6664 15.6185 13.3409 15.3391C14.0154 15.0597 14.592 14.5865 14.9976 13.9795C15.4032 13.3724 15.6197 12.6587 15.6197 11.9286C15.6187 10.9499 15.2294 10.0116 14.5374 9.31949C13.8453 8.62743 12.907 8.23819 11.9283 8.23718ZM11.9283 14.3994C11.4396 14.3994 10.9619 14.2545 10.5556 13.983C10.1492 13.7115 9.83256 13.3256 9.64555 12.8742C9.45854 12.4227 9.40958 11.9259 9.50492 11.4466C9.60026 10.9673 9.83559 10.527 10.1811 10.1815C10.5267 9.83595 10.9669 9.60062 11.4462 9.50528C11.9255 9.40994 12.4223 9.4589 12.8738 9.64591C13.3253 9.83292 13.7112 10.1496 13.9827 10.5559C14.2542 10.9622 14.3991 11.4399 14.3991 11.9286C14.3973 12.5834 14.1364 13.2108 13.6734 13.6738C13.2104 14.1368 12.583 14.3977 11.9283 14.3994Z" fill="#6658DD"/>
<path d="M12.8127 11.3188H12.5383V10.6784C12.5383 10.5166 12.474 10.3614 12.3595 10.2469C12.2451 10.1324 12.0898 10.0681 11.9279 10.0681C11.7661 10.0681 11.6108 10.1324 11.4964 10.2469C11.3819 10.3614 11.3176 10.5166 11.3176 10.6784V11.9296C11.3176 12.0913 11.3819 12.2464 11.4962 12.3608C11.6106 12.4752 11.7657 12.5394 11.9275 12.5394H12.8117C12.9736 12.5394 13.1288 12.4751 13.2433 12.3607C13.3578 12.2462 13.4221 12.091 13.4221 11.9291C13.4221 11.7672 13.3578 11.612 13.2433 11.4975C13.1288 11.3831 12.9736 11.3188 12.8117 11.3188H12.8127Z" fill="#6658DD"/>
<path d="M9.15852 7.02225C9.49586 7.02225 9.76932 6.74879 9.76932 6.41145C9.76932 6.07412 9.49586 5.80066 9.15852 5.80066C8.82119 5.80066 8.54773 6.07412 8.54773 6.41145C8.54773 6.74879 8.82119 7.02225 9.15852 7.02225Z" fill="#6658DD"/>
<path d="M6.48738 9.69315C6.82471 9.69315 7.09817 9.41968 7.09817 9.08235C7.09817 8.74502 6.82471 8.47156 6.48738 8.47156C6.15005 8.47156 5.87659 8.74502 5.87659 9.08235C5.87659 9.41968 6.15005 9.69315 6.48738 9.69315Z" fill="#6658DD"/>
<path d="M3.8166 7.02225C4.15394 7.02225 4.4274 6.74879 4.4274 6.41145C4.4274 6.07412 4.15394 5.80066 3.8166 5.80066C3.47927 5.80066 3.20581 6.07412 3.20581 6.41145C3.20581 6.74879 3.47927 7.02225 3.8166 7.02225Z" fill="#6658DD"/>
<path d="M3.8166 9.69315C4.15394 9.69315 4.4274 9.41968 4.4274 9.08235C4.4274 8.74502 4.15394 8.47156 3.8166 8.47156C3.47927 8.47156 3.20581 8.74502 3.20581 9.08235C3.20581 9.41968 3.47927 9.69315 3.8166 9.69315Z" fill="#6658DD"/>
<path d="M3.8166 12.2878C4.15394 12.2878 4.4274 12.0314 4.4274 11.7151C4.4274 11.3989 4.15394 11.1425 3.8166 11.1425C3.47927 11.1425 3.20581 11.3989 3.20581 11.7151C3.20581 12.0314 3.47927 12.2878 3.8166 12.2878Z" fill="#6658DD"/>
<path d="M6.48738 12.2878C6.82471 12.2878 7.09817 12.0314 7.09817 11.7151C7.09817 11.3989 6.82471 11.1425 6.48738 11.1425C6.15005 11.1425 5.87659 11.3989 5.87659 11.7151C5.87659 12.0314 6.15005 12.2878 6.48738 12.2878Z" fill="#6658DD"/>
<path d="M6.48738 7.02225C6.82471 7.02225 7.09817 6.74879 7.09817 6.41145C7.09817 6.07412 6.82471 5.80066 6.48738 5.80066C6.15005 5.80066 5.87659 6.07412 5.87659 6.41145C5.87659 6.74879 6.15005 7.02225 6.48738 7.02225Z" fill="#6658DD"/>
</svg>
