<svg id="cloud" xmlns="http://www.w3.org/2000/svg" width="20.476" height="14.067" viewBox="0 0 20.476 14.067">
  <path id="Path_14" data-name="Path 14" d="M239.558,222.357a.687.687,0,1,0-.687.687A.688.688,0,0,0,239.558,222.357Z" transform="translate(-228.633 -215.982)" fill="#6658DD"/>
  <path id="Path_15" data-name="Path 15" d="M16.141,83.773a6.421,6.421,0,0,0-11.807,0,5.116,5.116,0,0,0,.747,10.173H7.058V91.659L5.923,90.525a1.891,1.891,0,1,1,.851-.851l1.311,1.311a.6.6,0,0,1,.176.425v2.535H9.636v-5.9a1.891,1.891,0,1,1,1.2,0v5.9h1.375V91.41a.6.6,0,0,1,.176-.425L13.7,89.674a1.891,1.891,0,1,1,.851.851l-1.135,1.135v2.286h1.976A5.116,5.116,0,0,0,16.141,83.773Z" transform="translate(0 -79.879)" fill="#6658DD"/>
  <path id="Path_16" data-name="Path 16" d="M368.092,286.624a.687.687,0,1,0-.687.687A.688.688,0,0,0,368.092,286.624Z" transform="translate(-352.011 -277.671)" fill="#6658DD"/>
  <path id="Path_17" data-name="Path 17" d="M109.543,286.624a.687.687,0,1,0,.687-.687A.688.688,0,0,0,109.543,286.624Z" transform="translate(-105.149 -277.671)" fill="#6658DD"/>
</svg>
