<svg id="information" xmlns="http://www.w3.org/2000/svg" width="14.889" height="14.889" viewBox="0 0 14.889 14.889">
  <path id="Path_20" data-name="Path 20" d="M142.4,139a3.4,3.4,0,1,0,3.4,3.4A3.406,3.406,0,0,0,142.4,139Zm.436,5.154a.436.436,0,0,1-.872,0V142.4a.436.436,0,0,1,.872,0Zm-.436-3.068a.436.436,0,1,1,.436-.436A.444.444,0,0,1,142.4,141.086Z" transform="translate(-134.958 -134.958)" fill="#26bca2"/>
  <path id="Path_21" data-name="Path 21" d="M13.008,12.391A7.445,7.445,0,0,0,2.18,2.18,7.444,7.444,0,0,0,7.444,14.889h7.008a.436.436,0,0,0,.308-.745Zm-5.564-.672a4.275,4.275,0,1,1,4.275-4.275,4.28,4.28,0,0,1-4.275,4.275Z" transform="translate(0 0)" fill="#26bca2"/>
</svg>
