<svg xmlns="http://www.w3.org/2000/svg" width="15.915" height="15.915" viewBox="0 0 15.915 15.915">
  <g id="Layer_2" data-name="Layer 2" transform="translate(-1 -1)">
    <path id="Path_26" data-name="Path 26" d="M14.654,2.447H13.3V1.723a.723.723,0,0,0-1.447,0v.723H9.681V1.723a.723.723,0,0,0-1.447,0v.723H6.064V1.723a.723.723,0,1,0-1.447,0v.723H3.261A2.264,2.264,0,0,0,1,4.707v2.08H16.915V4.707A2.264,2.264,0,0,0,14.654,2.447Z" fill="#6658DD"/>
    <path id="Path_27" data-name="Path 27" d="M1,17.42a2.264,2.264,0,0,0,2.261,2.261H14.654a2.264,2.264,0,0,0,2.261-2.261V11H1Zm5.276-2.907a.723.723,0,0,1,1.023,0l.935.935,2.382-2.381a.723.723,0,1,1,1.023,1.023L8.745,16.983a.723.723,0,0,1-1.023,0L6.276,15.536A.723.723,0,0,1,6.276,14.514Z" transform="translate(0 -2.766)" fill="#6658DD"/>
  </g>
</svg>
