<svg width="13" height="17" viewBox="0 0 13 17" fill="none" xmlns="http://www.w3.org/2000/svg">
<path d="M6.36597 8.00021C6.85655 8.00666 7.34331 7.91307 7.79652 7.72515C8.24973 7.53723 8.65989 7.25892 9.00197 6.90721C9.35531 6.56538 9.63512 6.155 9.82427 5.70122C10.0134 5.24743 10.1079 4.75981 10.102 4.26821C10.1079 3.77663 10.0133 3.28902 9.8242 2.83524C9.63505 2.38147 9.35526 1.97108 9.00197 1.62921C8.65549 1.28252 8.24409 1.0075 7.79128 0.819862C7.33847 0.632223 6.85312 0.535645 6.36297 0.535645C5.87282 0.535645 5.38747 0.632223 4.93466 0.819862C4.48185 1.0075 4.07045 1.28252 3.72397 1.62921C3.37189 1.97164 3.09337 2.38229 2.90543 2.83605C2.7175 3.2898 2.62411 3.77713 2.63097 4.26821C2.62424 4.75937 2.71779 5.24674 2.9059 5.7005C3.09401 6.15426 3.37271 6.56487 3.72497 6.90721C4.06766 7.25949 4.47864 7.53812 4.93276 7.72606C5.38687 7.914 5.87455 8.00729 6.36597 8.00021Z" fill="#6658DD"/>
<path d="M12.8999 12.4523C12.8754 12.1239 12.8333 11.7971 12.7739 11.4733C12.7152 11.1403 12.6347 10.8116 12.5329 10.4893C12.4315 10.1703 12.2974 9.86269 12.1329 9.57127C11.9695 9.27634 11.764 9.00682 11.5229 8.77126C11.269 8.53252 10.9711 8.34539 10.6459 8.22027C10.2888 8.0836 9.90914 8.01575 9.52686 8.02027C9.30358 8.04406 9.09235 8.1335 8.91986 8.27727C8.73786 8.39627 8.52586 8.53327 8.28786 8.68427C8.03111 8.83759 7.75635 8.95851 7.46986 9.04427C6.8206 9.25973 6.11912 9.25973 5.46986 9.04427C5.18369 8.95852 4.90926 8.8376 4.65286 8.68427C4.41786 8.53427 4.20486 8.39727 4.02086 8.27627C3.84871 8.13257 3.63783 8.04313 3.41486 8.01926C3.03258 8.01464 2.65288 8.08252 2.29586 8.21928C1.97057 8.34435 1.67271 8.53149 1.41886 8.77027C1.17769 9.00584 0.972194 9.27535 0.808861 9.57027C0.644352 9.86172 0.510311 10.1693 0.408861 10.4883C0.307103 10.8107 0.226597 11.1394 0.167861 11.4723C0.108346 11.7961 0.0662854 12.1229 0.0418614 12.4513C0.0208614 12.7513 0.0108614 13.0513 0.0108614 13.3663C-0.00520822 13.7262 0.0544944 14.0855 0.186104 14.4209C0.317713 14.7563 0.518295 15.0603 0.774861 15.3133C1.31075 15.803 2.0185 16.0611 2.74386 16.0313H10.2049C10.9302 16.0612 11.638 15.8031 12.1739 15.3133C12.4305 15.0604 12.6311 14.7563 12.7627 14.4209C12.8943 14.0855 12.954 13.7262 12.9379 13.3663C12.9379 13.0543 12.9269 12.7463 12.9069 12.4513L12.8999 12.4523Z" fill="#6658DD"/>
</svg>
