<svg id="Layer_1" data-name="Layer 1" xmlns="http://www.w3.org/2000/svg" xmlns:xlink="http://www.w3.org/1999/xlink" viewBox="0 0 133.78 23.08"><defs><style>.cls-1{fill:#90908f;}.cls-2{fill:#f3d510;}.cls-3{fill:url(#linear-gradient);}.cls-4{fill:url(#linear-gradient-2);}.cls-5{fill:#bfbebe;}.cls-6{fill:#f4d60e;}</style><linearGradient id="linear-gradient" x1="0.97" y1="15.55" x2="16.97" y2="15.55" gradientUnits="userSpaceOnUse"><stop offset="0" stop-color="#f3ca19"/><stop offset="1" stop-color="#f1de0a"/></linearGradient><linearGradient id="linear-gradient-2" x1="15.89" y1="7.8" x2="0" y2="7.8" gradientUnits="userSpaceOnUse"><stop offset="0" stop-color="#8c8b8d"/><stop offset="0.45" stop-color="#9a999b"/><stop offset="1" stop-color="#b1b1b3"/></linearGradient></defs><path class="cls-1" d="M32,34.34H29.65v5.23h.63V37.85H32a1.71,1.71,0,0,0,1.31-.56,1.78,1.78,0,0,0,.43-1.2A1.69,1.69,0,0,0,32,34.34Zm0,2.92H30.28V34.93H32a1.17,1.17,0,0,1,0,2.33Z" transform="translate(-8.39 -18.03)"/><polygon class="cls-1" points="27.41 19.2 30.34 19.2 30.34 18.62 27.41 18.62 27.41 16.91 30.48 16.91 30.48 16.31 26.8 16.31 26.8 21.55 30.57 21.55 30.57 20.94 27.41 20.94 27.41 19.2"/><path class="cls-1" d="M44.06,37.18A1.64,1.64,0,0,0,44.51,36a1.67,1.67,0,0,0-1.76-1.67H40.43v5.23h.62V37.68h1.2L44,39.57h.83L43,37.65A1.71,1.71,0,0,0,44.06,37.18Zm-1.35-.1H41.05V34.93h1.7a1.08,1.08,0,0,1,.8.31,1,1,0,0,1,.3.76A1,1,0,0,1,42.71,37.08Z" transform="translate(-8.39 -18.03)"/><polygon class="cls-1" points="37.53 21.55 38.15 21.55 38.15 19.29 41.03 19.29 41.03 18.69 38.15 18.69 38.15 16.93 41.13 16.93 41.13 16.31 37.53 16.31 37.53 21.55"/><polygon class="cls-1" points="43.21 19.2 46.14 19.2 46.14 18.62 43.21 18.62 43.21 16.91 46.28 16.91 46.28 16.31 42.6 16.31 42.6 21.55 46.37 21.55 46.37 20.94 43.21 20.94 43.21 19.2"/><path class="cls-1" d="M58.65,34.86a2,2,0,0,1,1.47.6l.08.08.45-.38-.09-.09a2.69,2.69,0,0,0-1.91-.79,2.64,2.64,0,0,0-1.94.75A2.69,2.69,0,0,0,56,37a2.54,2.54,0,0,0,2.69,2.65,2.76,2.76,0,0,0,1.91-.78l.08-.09-.43-.4-.08.08a2.14,2.14,0,0,1-1.48.6A2,2,0,0,1,56.57,37a2.11,2.11,0,0,1,.58-1.54A2.07,2.07,0,0,1,58.65,34.86Z" transform="translate(-8.39 -18.03)"/><polygon class="cls-1" points="53.27 16.9 55.07 16.9 55.07 21.55 55.7 21.55 55.7 16.9 57.5 16.9 57.5 16.32 53.27 16.32 53.27 16.9"/><rect class="cls-1" x="58.86" y="16.31" width="0.62" height="5.24"/><path class="cls-1" d="M72.16,34.26A2.52,2.52,0,0,0,69.52,37a2.64,2.64,0,1,0,5.27,0h0A2.72,2.72,0,0,0,74,35,2.59,2.59,0,0,0,72.16,34.26Zm-2,2.7a2.16,2.16,0,0,1,.58-1.56A2.07,2.07,0,0,1,74.19,37a2,2,0,1,1-4.06,0Z" transform="translate(-8.39 -18.03)"/><polygon class="cls-1" points="71.48 20.23 68.29 16.31 67.95 16.31 67.95 21.55 68.57 21.55 68.57 17.63 71.77 21.55 72.09 21.55 72.09 16.31 71.48 16.31 71.48 20.23"/><path class="cls-1" d="M86.8,34.34l-2.34,5.23h.67l.54-1.22H88.5l.55,1.22h.68l-2.35-5.23Zm-.87,3.41,1.16-2.63,1.16,2.63Z" transform="translate(-8.39 -18.03)"/><polygon class="cls-1" points="81.33 16.9 83.14 16.9 83.14 21.55 83.76 21.55 83.76 16.9 85.57 16.9 85.57 16.32 81.33 16.32 81.33 16.9"/><rect class="cls-1" x="89.74" y="16.31" width="0.62" height="5.24"/><polygon class="cls-1" points="91.92 16.9 93.73 16.9 93.73 21.55 94.35 21.55 94.35 16.9 96.16 16.9 96.16 16.32 91.92 16.32 91.92 16.9"/><path class="cls-1" d="M107.92,36.59h-.06c-.86-.16-1.43-.3-1.43-.82,0-.87,1.25-.9,1.39-.9a1.53,1.53,0,0,1,1.42.62l.06.1.52-.31-.07-.1a2,2,0,0,0-1.92-.9,2.35,2.35,0,0,0-1.66.56,1.24,1.24,0,0,0-.36.94c0,1,1,1.22,1.94,1.4s1.56.35,1.55,1c0,.84-1,.94-1.47.94a1.83,1.83,0,0,1-1.6-.85l-.06-.1-.55.28,0,.1a2.37,2.37,0,0,0,2.16,1.15c.49,0,2.08-.11,2.09-1.52C109.92,37,108.86,36.77,107.92,36.59Z" transform="translate(-8.39 -18.03)"/><polygon class="cls-1" points="105.79 21.55 106.41 21.55 106.41 19.29 109.29 19.29 109.29 18.69 106.41 18.69 106.41 16.93 109.39 16.93 109.39 16.31 105.79 16.31 105.79 21.55"/><rect class="cls-1" x="110.94" y="16.31" width="0.62" height="5.24"/><polygon class="cls-1" points="116.81 20.23 113.62 16.31 113.28 16.31 113.28 21.55 113.91 21.55 113.91 17.63 117.1 21.55 117.42 21.55 117.42 16.31 116.81 16.31 116.81 20.23"/><polygon class="cls-1" points="119.78 19.2 122.7 19.2 122.7 18.62 119.78 18.62 119.78 16.91 122.84 16.91 122.84 16.31 119.16 16.31 119.16 21.55 122.93 21.55 122.93 20.94 119.78 20.94 119.78 19.2"/><path class="cls-1" d="M134.88,36.59h-.06c-.86-.16-1.43-.3-1.43-.82,0-.87,1.25-.9,1.39-.9a1.54,1.54,0,0,1,1.42.62l.06.1.52-.31-.07-.1a2,2,0,0,0-1.93-.9,2.39,2.39,0,0,0-1.66.56,1.27,1.27,0,0,0-.35.94c0,1,1,1.22,1.94,1.4s1.55.35,1.55,1c0,.84-1,.94-1.48.94a1.84,1.84,0,0,1-1.6-.85l-.05-.1-.55.28,0,.1a2.36,2.36,0,0,0,2.15,1.15c.49,0,2.09-.11,2.1-1.52C136.88,37,135.82,36.77,134.88,36.59Z" transform="translate(-8.39 -18.03)"/><polygon class="cls-1" points="129.54 16.32 129.54 16.9 131.35 16.9 131.35 21.55 131.97 21.55 131.97 16.9 133.78 16.9 133.78 16.32 129.54 16.32"/><path class="cls-1" d="M87,23.9c-1.53-.18-2.12-.49-2.12-1.08s.72-1.16,1.93-1.16a2.78,2.78,0,0,1,2.28,1.06l.12.19,2-1-.1-.21c-.71-1.45-2.21-2.21-4.33-2.21s-4.29,1-4.29,3.29c0,2.55,2.18,3.15,4.33,3.41,2,.21,2.21.84,2.21,1.3,0,1.24-1.67,1.34-2.17,1.34a2.74,2.74,0,0,1-2.73-1.52l-.1-.24-2.07,1.07.08.2c.75,1.84,2.31,2.73,4.79,2.73,2.24,0,4.63-.94,4.63-3.58S89.26,24.18,87,23.9" transform="translate(-8.39 -18.03)"/><polygon class="cls-1" points="91.63 6.06 88.32 1.51 85.57 1.51 85.57 12.98 88.13 12.98 88.13 5.51 91.25 9.78 91.91 9.78 95.11 5.51 95.11 12.98 97.67 12.98 97.67 1.51 94.94 1.51 91.63 6.06"/><path class="cls-1" d="M112.33,19.53,107.19,31H110l.94-2.07h5.42l.92,2.07h2.8l-5.14-11.46Zm3,7H112l1.66-3.8Z" transform="translate(-8.39 -18.03)"/><polygon class="cls-1" points="124.26 1.5 124.26 3.87 127.74 3.87 127.74 12.96 130.3 12.96 130.3 3.87 133.78 3.87 133.78 1.5 124.26 1.5"/><path class="cls-1" d="M131.94,31l-3.54-4A3.48,3.48,0,0,0,131,23.43a3.88,3.88,0,0,0-4.2-3.88H121.3V31h2.56V27.34h1.63l3.2,3.67Zm-3.54-7.53a1.46,1.46,0,0,1-1.64,1.5h-2.9V22h2.9a1.48,1.48,0,0,1,1.64,1.51" transform="translate(-8.39 -18.03)"/><rect class="cls-1" x="21.27" y="4.96" width="2.55" height="8.02"/><polygon class="cls-1" points="34.31 12.98 28.92 6.06 28.92 12.98 26.36 12.98 26.36 1.52 28.41 1.52 33.41 7.86 33.41 1.5 35.98 1.5 35.98 12.98 34.31 12.98"/><polygon class="cls-1" points="37.67 3.9 41.15 3.9 41.15 12.98 43.72 12.98 43.72 3.9 47.2 3.9 47.2 1.52 37.67 1.52 37.67 3.9"/><polygon class="cls-1" points="48.86 12.98 57.57 12.98 57.57 10.45 51.41 10.45 51.41 8.47 57.35 8.47 57.35 6.05 51.41 6.05 51.41 4.02 57.57 4.02 57.57 1.52 48.86 1.52 48.86 12.98"/><path class="cls-1" d="M78.66,31l-3.55-4a3.48,3.48,0,0,0,2.57-3.59,3.88,3.88,0,0,0-4.2-3.88H68V31h2.57V27.34h1.63L75.4,31Zm-3.55-7.53A1.46,1.46,0,0,1,73.48,25h-2.9V22h2.9a1.47,1.47,0,0,1,1.63,1.51" transform="translate(-8.39 -18.03)"/><rect class="cls-2" x="21.27" y="1.5" width="2.55" height="2.55"/><polygon class="cls-3" points="14.06 8.02 16.97 16.26 8.28 23.08 0.97 23.08 11.95 14.46 10.63 10.71 14.06 8.02"/><polygon class="cls-4" points="6.56 12.91 5.01 8.53 15.89 0 8.59 0 0 6.74 3.12 15.6 6.56 12.91"/><polygon class="cls-5" points="10.07 11.15 10.55 12.48 3.87 17.72 3.4 16.39 10.07 11.15"/><polygon class="cls-6" points="2.91 16.77 3.38 18.1 2.27 18.97 1.8 17.64 2.91 16.77"/></svg>